<mxfile host="app.diagrams.net" modified="2023-05-07T13:29:03.508Z" agent="Mozilla/5.0 (Windows NT 10.0; Win64; x64) AppleWebKit/537.36 (KHTML, like Gecko) Chrome/112.0.0.0 Safari/537.36" etag="EwOkllOJfKt5Hh4xyYlx" version="21.2.9" type="device">
  <diagram name="Infra_01" id="zLFx_LldnTNZkCgYaLgA">
    <mxGraphModel dx="1050" dy="573" grid="1" gridSize="10" guides="1" tooltips="1" connect="1" arrows="1" fold="1" page="1" pageScale="1" pageWidth="850" pageHeight="1100" math="0" shadow="0">
      <root>
        <mxCell id="0" />
        <mxCell id="1" parent="0" />
        <mxCell id="dRGsGHaZUMaMl-o6Y6ED-13" style="edgeStyle=orthogonalEdgeStyle;rounded=0;orthogonalLoop=1;jettySize=auto;html=1;entryX=0.5;entryY=0;entryDx=0;entryDy=0;" edge="1" parent="1" source="dRGsGHaZUMaMl-o6Y6ED-3" target="dRGsGHaZUMaMl-o6Y6ED-7">
          <mxGeometry relative="1" as="geometry" />
        </mxCell>
        <mxCell id="dRGsGHaZUMaMl-o6Y6ED-14" style="edgeStyle=orthogonalEdgeStyle;rounded=0;orthogonalLoop=1;jettySize=auto;html=1;entryX=0.5;entryY=0;entryDx=0;entryDy=0;" edge="1" parent="1" source="dRGsGHaZUMaMl-o6Y6ED-3" target="dRGsGHaZUMaMl-o6Y6ED-9">
          <mxGeometry relative="1" as="geometry" />
        </mxCell>
        <mxCell id="dRGsGHaZUMaMl-o6Y6ED-3" value="&lt;div style=&quot;&quot;&gt;&lt;span style=&quot;font-size: 18px;&quot;&gt;&lt;b&gt;Menu&lt;/b&gt;&lt;/span&gt;&lt;/div&gt;&lt;font style=&quot;font-size: 14px;&quot;&gt;&lt;div style=&quot;&quot;&gt;&lt;span style=&quot;background-color: initial;&quot;&gt;1.Doctor&lt;/span&gt;&lt;/div&gt;&lt;div style=&quot;&quot;&gt;&lt;span style=&quot;background-color: initial;&quot;&gt;&amp;nbsp;2.Patient&lt;/span&gt;&lt;/div&gt;&lt;/font&gt;" style="rounded=0;whiteSpace=wrap;html=1;align=center;" vertex="1" parent="1">
          <mxGeometry x="340" y="20" width="130" height="100" as="geometry" />
        </mxCell>
        <mxCell id="dRGsGHaZUMaMl-o6Y6ED-5" value="Register" style="whiteSpace=wrap;html=1;aspect=fixed;" vertex="1" parent="1">
          <mxGeometry x="45" y="240" width="70" height="70" as="geometry" />
        </mxCell>
        <mxCell id="dRGsGHaZUMaMl-o6Y6ED-6" value="Search" style="whiteSpace=wrap;html=1;aspect=fixed;" vertex="1" parent="1">
          <mxGeometry x="140" y="240" width="70" height="70" as="geometry" />
        </mxCell>
        <mxCell id="dRGsGHaZUMaMl-o6Y6ED-10" value="" style="edgeStyle=orthogonalEdgeStyle;rounded=0;orthogonalLoop=1;jettySize=auto;html=1;" edge="1" parent="1" source="dRGsGHaZUMaMl-o6Y6ED-7" target="dRGsGHaZUMaMl-o6Y6ED-6">
          <mxGeometry relative="1" as="geometry" />
        </mxCell>
        <mxCell id="dRGsGHaZUMaMl-o6Y6ED-11" style="edgeStyle=orthogonalEdgeStyle;rounded=0;orthogonalLoop=1;jettySize=auto;html=1;entryX=0.5;entryY=0;entryDx=0;entryDy=0;" edge="1" parent="1" source="dRGsGHaZUMaMl-o6Y6ED-7" target="dRGsGHaZUMaMl-o6Y6ED-5">
          <mxGeometry relative="1" as="geometry" />
        </mxCell>
        <mxCell id="dRGsGHaZUMaMl-o6Y6ED-12" style="edgeStyle=orthogonalEdgeStyle;rounded=0;orthogonalLoop=1;jettySize=auto;html=1;entryX=0.75;entryY=0;entryDx=0;entryDy=0;" edge="1" parent="1" source="dRGsGHaZUMaMl-o6Y6ED-7" target="dRGsGHaZUMaMl-o6Y6ED-8">
          <mxGeometry relative="1" as="geometry" />
        </mxCell>
        <mxCell id="dRGsGHaZUMaMl-o6Y6ED-7" value="&lt;b&gt;Doctor&lt;/b&gt;" style="rounded=0;whiteSpace=wrap;html=1;" vertex="1" parent="1">
          <mxGeometry x="115" y="140" width="120" height="60" as="geometry" />
        </mxCell>
        <mxCell id="dRGsGHaZUMaMl-o6Y6ED-8" value="Update Info" style="whiteSpace=wrap;html=1;aspect=fixed;" vertex="1" parent="1">
          <mxGeometry x="235" y="240" width="70" height="70" as="geometry" />
        </mxCell>
        <mxCell id="dRGsGHaZUMaMl-o6Y6ED-18" style="edgeStyle=orthogonalEdgeStyle;rounded=0;orthogonalLoop=1;jettySize=auto;html=1;entryX=0.5;entryY=0;entryDx=0;entryDy=0;" edge="1" parent="1" source="dRGsGHaZUMaMl-o6Y6ED-9" target="dRGsGHaZUMaMl-o6Y6ED-16">
          <mxGeometry relative="1" as="geometry" />
        </mxCell>
        <mxCell id="dRGsGHaZUMaMl-o6Y6ED-19" style="edgeStyle=orthogonalEdgeStyle;rounded=0;orthogonalLoop=1;jettySize=auto;html=1;entryX=0.5;entryY=0;entryDx=0;entryDy=0;" edge="1" parent="1" source="dRGsGHaZUMaMl-o6Y6ED-9" target="dRGsGHaZUMaMl-o6Y6ED-15">
          <mxGeometry relative="1" as="geometry" />
        </mxCell>
        <mxCell id="dRGsGHaZUMaMl-o6Y6ED-20" style="edgeStyle=orthogonalEdgeStyle;rounded=0;orthogonalLoop=1;jettySize=auto;html=1;entryX=0.5;entryY=0;entryDx=0;entryDy=0;" edge="1" parent="1" source="dRGsGHaZUMaMl-o6Y6ED-9" target="dRGsGHaZUMaMl-o6Y6ED-17">
          <mxGeometry relative="1" as="geometry" />
        </mxCell>
        <mxCell id="dRGsGHaZUMaMl-o6Y6ED-9" value="&lt;b&gt;Patient&lt;/b&gt;" style="rounded=0;whiteSpace=wrap;html=1;" vertex="1" parent="1">
          <mxGeometry x="570" y="150" width="120" height="60" as="geometry" />
        </mxCell>
        <mxCell id="dRGsGHaZUMaMl-o6Y6ED-15" value="Register" style="whiteSpace=wrap;html=1;aspect=fixed;" vertex="1" parent="1">
          <mxGeometry x="510" y="250" width="70" height="70" as="geometry" />
        </mxCell>
        <mxCell id="dRGsGHaZUMaMl-o6Y6ED-16" value="Search" style="whiteSpace=wrap;html=1;aspect=fixed;" vertex="1" parent="1">
          <mxGeometry x="595" y="250" width="70" height="70" as="geometry" />
        </mxCell>
        <mxCell id="dRGsGHaZUMaMl-o6Y6ED-17" value="Update Info" style="whiteSpace=wrap;html=1;aspect=fixed;" vertex="1" parent="1">
          <mxGeometry x="680" y="250" width="70" height="70" as="geometry" />
        </mxCell>
      </root>
    </mxGraphModel>
  </diagram>
</mxfile>
